<?xml version="1.0" encoding="UTF-8" standalone="no"?>
<!-- Created with Inkscape (http://www.inkscape.org/) -->

<svg
   xmlns:dc="http://purl.org/dc/elements/1.1/"
   xmlns:cc="http://creativecommons.org/ns#"
   xmlns:rdf="http://www.w3.org/1999/02/22-rdf-syntax-ns#"
   xmlns:svg="http://www.w3.org/2000/svg"
   xmlns="http://www.w3.org/2000/svg"
   xmlns:sodipodi="http://sodipodi.sourceforge.net/DTD/sodipodi-0.dtd"
   xmlns:inkscape="http://www.inkscape.org/namespaces/inkscape"
   width="3.75265mm"
   height="36.576584mm"
   viewBox="0 0 3.75265 36.576584"
   version="1.1"
   id="svg19407"
   inkscape:version="0.92.4 (33fec40, 2019-01-16)"
   sodipodi:docname="twistedpair.svg">
  <defs
     id="defs19401" />
  <sodipodi:namedview
     id="base"
     pagecolor="#ffffff"
     bordercolor="#666666"
     borderopacity="1.0"
     inkscape:pageopacity="0.0"
     inkscape:pageshadow="2"
     inkscape:zoom="2.8"
     inkscape:cx="70.331669"
     inkscape:cy="120.02265"
     inkscape:document-units="mm"
     inkscape:current-layer="layer1"
     showgrid="false"
     fit-margin-top="0"
     fit-margin-left="0"
     fit-margin-right="0"
     fit-margin-bottom="0"
     inkscape:window-width="1920"
     inkscape:window-height="1031"
     inkscape:window-x="0"
     inkscape:window-y="0"
     inkscape:window-maximized="1" />
  <metadata
     id="metadata19404">
    <rdf:RDF>
      <cc:Work
         rdf:about="">
        <dc:format>image/svg+xml</dc:format>
        <dc:type
           rdf:resource="http://purl.org/dc/dcmitype/StillImage" />
        <dc:title></dc:title>
      </cc:Work>
    </rdf:RDF>
  </metadata>
  <g
     inkscape:label="Layer 1"
     inkscape:groupmode="layer"
     id="layer1"
     transform="translate(-34.472331,-134.38616)">
    <path
       style="fill:none;stroke:#000000;stroke-width:0.97899997;stroke-linecap:butt;stroke-linejoin:miter;stroke-miterlimit:4;stroke-dasharray:none;stroke-opacity:1"
       d="m 37.735481,134.70957 c 0,0 -2.77365,3.15137 -2.77365,5.9883 0,2.83692 2.77365,3.15136 2.77365,5.98829 0,2.83693 -2.77365,3.15137 -2.77365,5.98829 0,2.83693 2.77365,3.15137 2.77365,5.9883 0,2.83692 -2.77365,3.15137 -2.77365,5.98829 0,2.83693 2.77365,5.9883 2.77365,5.9883"
       id="path18377"
       inkscape:connector-curvature="0"
       sodipodi:nodetypes="csssssc" />
    <path
       sodipodi:nodetypes="csssssc"
       inkscape:connector-curvature="0"
       id="path18379"
       d="m 34.961831,134.70957 c 0,0 2.77365,3.15137 2.77365,5.9883 0,2.83692 -2.77365,3.15136 -2.77365,5.98829 0,2.83693 2.77365,3.15137 2.77365,5.98829 0,2.83693 -2.77365,3.15137 -2.77365,5.9883 0,2.83692 2.77365,3.15137 2.77365,5.98829 0,2.83693 -2.77365,5.9883 -2.77365,5.9883"
       style="fill:none;stroke:#ff0000;stroke-width:0.97899997;stroke-linecap:butt;stroke-linejoin:miter;stroke-miterlimit:4;stroke-dasharray:none;stroke-opacity:1" />
  </g>
</svg>
